<svg width="676" height="124" viewBox="0 0 676 124" fill="none" xmlns="http://www.w3.org/2000/svg">
<path d="M74.469 5.87799C77.884 5.87799 80.294 9.22599 79.21 12.4647L53.15 90.338C52.467 92.377 50.558 93.751 48.408 93.751H31.865C29.712 93.751 27.801 92.374 27.121 90.332L1.17002 12.4588C0.091018 9.22119 2.501 5.87799 5.913 5.87799H17.747C19.968 5.87799 21.922 7.34199 22.546 9.47269L35.766 54.614C36.176 55.845 36.668 57.732 37.242 60.276C37.817 62.737 38.391 65.322 38.965 68.029C39.621 70.655 40.031 72.829 40.195 74.552C40.442 72.829 40.811 70.655 41.303 68.029C41.877 65.404 42.451 62.86 43.025 60.399C43.6 57.855 44.092 55.968 44.502 54.737L57.958 9.45369C58.589 7.33249 60.538 5.87799 62.751 5.87799H74.469Z" fill="#E5E7EB"/>
<path d="M117.021 24.954C123.42 24.954 128.915 26.144 133.509 28.523C138.185 30.821 141.753 34.267 144.214 38.861C146.756 43.374 148.028 48.994 148.028 55.722V60.322C148.028 63.083 145.789 65.322 143.028 65.322H105.332C105.497 69.752 106.932 73.28 109.639 75.906C112.346 78.531 116.201 79.844 121.205 79.844C125.552 79.844 129.49 79.434 133.017 78.613C134.2 78.338 135.396 78.008 136.607 77.622C140.112 76.505 143.967 78.931 143.967 82.61V87.037C143.967 88.895 142.948 90.626 141.238 91.355C138.751 92.415 136.134 93.213 133.386 93.751C129.613 94.572 124.978 94.982 119.482 94.982C112.674 94.982 106.604 93.751 101.272 91.29C96.022 88.828 91.88 85.054 88.845 79.967C85.892 74.798 84.415 68.275 84.415 60.399C84.415 52.358 85.769 45.753 88.476 40.584C91.183 35.333 94.997 31.436 99.919 28.892C104.84 26.267 110.541 24.954 117.021 24.954ZM117.391 39.354C114.191 39.354 111.526 40.379 109.393 42.43C107.342 44.399 106.112 47.558 105.702 51.907H128.956C128.956 49.527 128.505 47.394 127.603 45.507C126.783 43.62 125.511 42.143 123.789 41.077C122.066 39.928 119.933 39.354 117.391 39.354Z" fill="#E5E7EB"/>
<path d="M201.248 24.954C202.314 24.954 203.504 25.036 204.816 25.2C206.587 25.311 207.775 26.891 207.619 28.658L206.422 42.17C206.288 43.677 204.85 44.753 203.34 44.646C202.191 44.481 200.92 44.399 199.525 44.399C197.557 44.399 195.588 44.646 193.619 45.138C191.651 45.548 189.846 46.328 188.206 47.476C186.565 48.543 185.253 50.102 184.268 52.153C183.284 54.122 182.792 56.707 182.792 59.907V88.751C182.792 91.513 180.553 93.751 177.792 93.751H166.998C164.236 93.751 161.998 91.513 161.998 88.751V31.185C161.998 28.423 164.236 26.185 166.998 26.185H173.864C176.091 26.185 178.05 27.658 178.667 29.797L180.823 37.261H181.684C182.997 34.964 184.637 32.913 186.606 31.108C188.575 29.221 190.79 27.744 193.25 26.677C195.793 25.528 198.459 24.954 201.248 24.954Z" fill="#E5E7EB"/>
<path d="M239.289 24.954C243.719 24.954 247.492 25.816 250.609 27.539C253.726 29.262 256.31 31.641 258.36 34.677H258.853L259.685 30.259C260.13 27.896 262.194 26.185 264.598 26.185H273.17C275.932 26.185 278.17 28.423 278.17 31.185V93.874C278.17 100.274 276.899 105.648 274.356 109.997C271.813 114.345 267.958 117.627 262.79 119.842C257.622 122.14 251.142 123.288 243.349 123.288C238.264 123.288 233.629 123.001 229.446 122.427C226.486 122.013 223.59 121.363 220.759 120.479C218.782 119.861 217.511 117.983 217.511 115.911V110.013C217.511 106.439 221.164 104.01 224.593 105.016C226.334 105.527 228.074 105.956 229.815 106.305C233.916 107.207 238.428 107.658 243.349 107.658C248.107 107.658 251.634 106.551 253.931 104.335C256.31 102.202 257.499 99.002 257.499 94.736V93.382C257.499 92.151 257.54 90.798 257.622 89.321C257.786 87.844 257.95 86.408 258.114 85.013H257.499C255.531 88.213 253.029 90.674 249.994 92.397C246.959 94.12 243.267 94.982 238.92 94.982C231.291 94.982 225.221 91.946 220.71 85.875C216.28 79.803 214.066 71.188 214.066 60.03C214.066 48.789 216.362 40.133 220.956 34.061C225.549 27.99 231.66 24.954 239.289 24.954ZM246.548 41.323C244.006 41.323 241.873 42.061 240.15 43.538C238.428 44.933 237.156 47.025 236.336 49.815C235.516 52.604 235.106 56.132 235.106 60.399C235.106 66.716 236.049 71.393 237.936 74.429C239.822 77.383 242.775 78.86 246.795 78.86C249.009 78.86 250.855 78.572 252.331 77.998C253.89 77.342 255.12 76.357 256.023 75.044C257.007 73.65 257.745 71.927 258.237 69.875C258.73 67.824 258.976 65.363 258.976 62.491V59.907C258.976 55.722 258.566 52.276 257.745 49.568C256.925 46.779 255.613 44.728 253.808 43.415C252.003 42.02 249.584 41.323 246.548 41.323Z" fill="#E5E7EB"/>
<path d="M325.134 24.954C331.533 24.954 337.028 26.144 341.622 28.523C346.298 30.821 349.866 34.267 352.327 38.861C354.869 43.374 356.141 48.994 356.141 55.722V60.322C356.141 63.083 353.902 65.322 351.141 65.322H313.446C313.61 69.752 315.045 73.28 317.752 75.906C320.459 78.531 324.314 79.844 329.318 79.844C333.665 79.844 337.603 79.434 341.13 78.613C342.313 78.338 343.509 78.008 344.72 77.622C348.225 76.505 352.081 78.931 352.081 82.61V87.037C352.081 88.895 351.061 90.626 349.351 91.355C346.864 92.415 344.247 93.213 341.499 93.751C337.726 94.572 333.091 94.982 327.595 94.982C320.787 94.982 314.717 93.751 309.385 91.29C304.135 88.828 299.993 85.054 296.958 79.967C294.005 74.798 292.528 68.275 292.528 60.399C292.528 52.358 293.882 45.753 296.589 40.584C299.296 35.333 303.11 31.436 308.032 28.892C312.953 26.267 318.654 24.954 325.134 24.954ZM325.504 39.354C322.305 39.354 319.639 40.379 317.506 42.43C315.455 44.399 314.225 47.558 313.815 51.907H337.07C337.07 49.527 336.618 47.394 335.716 45.507C334.896 43.62 333.624 42.143 331.902 41.077C330.179 39.928 328.046 39.354 325.504 39.354Z" fill="#E5E7EB"/>
<path d="M410.961 11.047C405.547 11.047 400.666 11.9905 396.319 13.8776C392.053 15.6827 388.444 18.3082 385.491 21.754C382.538 25.118 380.282 29.18 378.724 33.938C377.165 38.615 376.386 43.825 376.386 49.568C376.386 57.445 377.616 64.337 380.077 70.245C382.62 76.07 386.352 80.583 391.274 83.782C396.196 86.982 402.348 88.582 409.73 88.582C414.078 88.582 418.015 88.254 421.542 87.598C423.65 87.214 425.673 86.761 427.613 86.238C429.602 85.702 431.632 87.155 431.632 89.215C431.632 90.464 430.862 91.59 429.676 91.983C427.185 92.808 424.515 93.479 421.665 93.997C418.056 94.654 413.832 94.982 408.992 94.982C400.133 94.982 392.71 93.095 386.722 89.321C380.816 85.546 376.345 80.254 373.31 73.444C370.357 66.634 368.881 58.676 368.881 49.568C368.881 43.005 369.824 37.015 371.71 31.6C373.597 26.103 376.345 21.344 379.954 17.3237C383.563 13.3033 387.952 10.1855 393.12 7.97021C398.369 5.75491 404.357 4.64731 411.084 4.64731C415.349 4.64731 419.41 5.05751 423.265 5.87801C426.011 6.45021 428.597 7.20191 431.024 8.13331C432.755 8.79791 433.482 10.8001 432.72 12.491C431.925 14.255 429.826 14.9891 428.029 14.2712C425.92 13.4287 423.758 12.7642 421.542 12.2777C418.179 11.4572 414.652 11.047 410.961 11.047Z" fill="#E5E7EB"/>
<path d="M455.754 90.245C455.754 92.181 454.184 93.751 452.247 93.751C450.31 93.751 448.74 92.181 448.74 90.245V3.7233C448.74 1.7867 450.31 0.216705 452.247 0.216705C454.184 0.216705 455.754 1.7867 455.754 3.7234V90.245Z" fill="#E5E7EB"/>
<path d="M532.211 60.891C532.211 66.06 531.555 70.737 530.243 74.921C529.012 79.024 527.126 82.593 524.583 85.629C522.122 88.582 519.046 90.88 515.355 92.521C511.745 94.161 507.562 94.982 502.804 94.982C498.293 94.982 494.233 94.203 490.623 92.644C487.014 91.003 483.938 88.705 481.395 85.752C478.934 82.716 477.007 79.106 475.612 74.921C474.3 70.737 473.644 66.06 473.644 60.891C473.644 53.835 474.833 47.804 477.212 42.8C479.591 37.713 482.995 33.815 487.424 31.108C491.854 28.4 497.145 27.046 503.297 27.046C509.613 27.046 514.904 28.482 519.169 31.354C523.434 34.143 526.674 38.082 528.889 43.169C531.104 48.174 532.211 54.081 532.211 60.891ZM480.903 60.891C480.903 66.47 481.682 71.393 483.241 75.66C484.881 79.844 487.301 83.126 490.5 85.505C493.781 87.803 497.924 88.951 502.927 88.951C508.013 88.951 512.156 87.803 515.355 85.505C518.636 83.126 521.056 79.844 522.614 75.66C524.173 71.393 524.952 66.47 524.952 60.891C524.952 55.476 524.214 50.676 522.737 46.492C521.261 42.307 518.923 39.025 515.724 36.646C512.525 34.267 508.341 33.077 503.174 33.077C495.791 33.077 490.213 35.538 486.44 40.461C482.749 45.384 480.903 52.194 480.903 60.891Z" fill="#E5E7EB"/>
<path d="M598.081 28.277C600.018 28.277 601.588 29.847 601.588 31.784V90.782C601.588 92.422 600.258 93.751 598.618 93.751C597.091 93.751 595.813 92.593 595.663 91.074L594.82 82.552H594.451C593.303 84.931 591.662 87.064 589.529 88.951C587.479 90.839 585.018 92.315 582.147 93.382C579.276 94.449 575.954 94.982 572.181 94.982C567.177 94.982 562.952 94.12 559.507 92.397C556.062 90.592 553.478 87.926 551.756 84.398C550.033 80.87 549.172 76.439 549.172 71.106V31.784C549.172 29.847 550.742 28.277 552.679 28.277C554.615 28.277 556.185 29.847 556.185 31.784V70.491C556.185 76.726 557.58 81.362 560.369 84.398C563.24 87.434 567.464 88.951 573.042 88.951C577.882 88.951 581.86 88.008 584.977 86.121C588.176 84.234 590.555 81.444 592.113 77.752C593.754 74.06 594.574 69.465 594.574 63.968V31.784C594.574 29.847 596.144 28.277 598.081 28.277Z" fill="#E5E7EB"/>
<path d="M646.83 94.982C638.053 94.982 631.286 92.151 626.528 86.49C621.853 80.829 619.515 72.542 619.515 61.63C619.515 50.389 621.976 41.815 626.897 35.907C631.901 30 638.751 27.046 647.445 27.046C651.137 27.046 654.336 27.621 657.043 28.769C659.75 29.836 662.046 31.313 663.933 33.2C665.902 35.087 667.419 37.179 668.486 39.477H668.978C668.896 37.589 668.773 35.456 668.609 33.077C668.527 30.697 668.486 28.564 668.486 26.677V0.216705H675.499V90.8C675.499 92.43 674.177 93.751 672.547 93.751C671.015 93.751 669.738 92.579 669.607 91.053L668.855 82.306H668.486C667.337 84.603 665.82 86.736 663.933 88.705C662.046 90.592 659.709 92.11 656.92 93.259C654.131 94.408 650.768 94.982 646.83 94.982ZM647.692 88.951C655.32 88.951 660.693 86.654 663.81 82.059C667.009 77.465 668.609 70.819 668.609 62.122V61.014C668.609 51.989 667.009 45.097 663.81 40.338C660.693 35.497 655.484 33.077 648.184 33.077C641.211 33.077 635.88 35.579 632.188 40.584C628.579 45.507 626.774 52.563 626.774 61.753C626.774 70.614 628.497 77.383 631.942 82.059C635.387 86.654 640.637 88.951 647.692 88.951Z" fill="#E5E7EB"/>
</svg>
