<svg width="675" height="124" viewBox="0 0 675 124" fill="none" xmlns="http://www.w3.org/2000/svg">
<path d="M73.5593 5.66129C76.9743 5.66129 79.3843 9.00929 78.3003 12.248L52.2403 90.1213C51.5573 92.1603 49.6483 93.5343 47.4983 93.5343H30.9553C28.8023 93.5343 26.8913 92.1573 26.2113 90.1153L0.26032 12.2421C-0.81868 9.00449 1.5913 5.66129 5.0033 5.66129H16.8373C19.0583 5.66129 21.0123 7.12529 21.6363 9.25599L34.8563 54.3973C35.2663 55.6283 35.7583 57.5153 36.3323 60.0593C36.9073 62.5203 37.4813 65.1053 38.0553 67.8123C38.7113 70.4383 39.1213 72.6123 39.2853 74.3353C39.5323 72.6123 39.9013 70.4383 40.3933 67.8123C40.9673 65.1873 41.5413 62.6433 42.1153 60.1823C42.6903 57.6383 43.1823 55.7513 43.5923 54.5203L57.0483 9.23698C57.6793 7.11578 59.6283 5.66129 61.8413 5.66129H73.5593Z" fill="#030712"/>
<path d="M116.111 24.7373C122.51 24.7373 128.005 25.9273 132.599 28.3063C137.275 30.6043 140.843 34.0503 143.304 38.6443C145.846 43.1573 147.118 48.7773 147.118 55.5053V60.1053C147.118 62.8663 144.879 65.1053 142.118 65.1053H104.422C104.587 69.5353 106.022 73.0633 108.729 75.6893C111.436 78.3143 115.291 79.6273 120.295 79.6273C124.642 79.6273 128.58 79.2173 132.107 78.3963C133.29 78.1213 134.486 77.7913 135.697 77.4053C139.202 76.2883 143.057 78.7143 143.057 82.3933V86.8203C143.057 88.6783 142.038 90.4093 140.328 91.1383C137.841 92.1983 135.224 92.9963 132.476 93.5343C128.703 94.3553 124.068 94.7653 118.572 94.7653C111.764 94.7653 105.694 93.5343 100.362 91.0733C95.1123 88.6113 90.9703 84.8373 87.9353 79.7503C84.9823 74.5813 83.5053 68.0583 83.5053 60.1823C83.5053 52.1413 84.8593 45.5363 87.5663 40.3673C90.2733 35.1163 94.0873 31.2193 99.0093 28.6753C103.93 26.0503 109.631 24.7373 116.111 24.7373ZM116.481 39.1373C113.281 39.1373 110.616 40.1623 108.483 42.2133C106.432 44.1823 105.202 47.3413 104.792 51.6903H128.046C128.046 49.3103 127.595 47.1773 126.693 45.2903C125.873 43.4033 124.601 41.9263 122.879 40.8603C121.156 39.7113 119.023 39.1373 116.481 39.1373Z" fill="#030712"/>
<path d="M200.338 24.7373C201.404 24.7373 202.594 24.8193 203.906 24.9833C205.677 25.0943 206.865 26.6743 206.709 28.4413L205.512 41.9533C205.378 43.4603 203.94 44.5363 202.43 44.4293C201.281 44.2643 200.01 44.1823 198.615 44.1823C196.647 44.1823 194.678 44.4293 192.709 44.9213C190.741 45.3313 188.936 46.1113 187.296 47.2593C185.655 48.3263 184.343 49.8853 183.358 51.9363C182.374 53.9053 181.882 56.4903 181.882 59.6903V88.5343C181.882 91.2963 179.643 93.5343 176.882 93.5343H166.088C163.326 93.5343 161.088 91.2963 161.088 88.5343V30.9683C161.088 28.2063 163.326 25.9683 166.088 25.9683H172.954C175.181 25.9683 177.14 27.4413 177.757 29.5803L179.913 37.0443H180.774C182.087 34.7473 183.727 32.6963 185.696 30.8913C187.665 29.0043 189.88 27.5273 192.34 26.4603C194.883 25.3113 197.549 24.7373 200.338 24.7373Z" fill="#030712"/>
<path d="M238.379 24.7373C242.809 24.7373 246.582 25.5993 249.699 27.3223C252.816 29.0453 255.4 31.4243 257.45 34.4603H257.943L258.775 30.0423C259.22 27.6793 261.284 25.9683 263.688 25.9683H272.26C275.022 25.9683 277.26 28.2063 277.26 30.9683V93.6573C277.26 100.057 275.989 105.431 273.446 109.78C270.903 114.128 267.048 117.41 261.88 119.625C256.712 121.923 250.232 123.071 242.439 123.071C237.354 123.071 232.719 122.784 228.536 122.21C225.576 121.796 222.68 121.146 219.849 120.262C217.872 119.644 216.601 117.766 216.601 115.694V109.796C216.601 106.222 220.254 103.793 223.683 104.799C225.424 105.31 227.164 105.739 228.905 106.088C233.006 106.99 237.518 107.441 242.439 107.441C247.197 107.441 250.724 106.334 253.021 104.118C255.4 101.985 256.589 98.7853 256.589 94.5193V93.1653C256.589 91.9343 256.63 90.5813 256.712 89.1043C256.876 87.6273 257.04 86.1913 257.204 84.7963H256.589C254.621 87.9963 252.119 90.4573 249.084 92.1803C246.049 93.9033 242.357 94.7653 238.01 94.7653C230.381 94.7653 224.311 91.7293 219.8 85.6583C215.37 79.5863 213.156 70.9713 213.156 59.8133C213.156 48.5723 215.452 39.9163 220.046 33.8443C224.639 27.7733 230.75 24.7373 238.379 24.7373ZM245.638 41.1063C243.096 41.1063 240.963 41.8443 239.24 43.3213C237.518 44.7163 236.246 46.8083 235.426 49.5983C234.606 52.3873 234.196 55.9153 234.196 60.1823C234.196 66.4993 235.139 71.1763 237.026 74.2123C238.912 77.1663 241.865 78.6433 245.885 78.6433C248.099 78.6433 249.945 78.3553 251.421 77.7813C252.98 77.1253 254.21 76.1403 255.113 74.8273C256.097 73.4333 256.835 71.7103 257.327 69.6583C257.82 67.6073 258.066 65.1463 258.066 62.2743V59.6903C258.066 55.5053 257.656 52.0593 256.835 49.3513C256.015 46.5623 254.703 44.5113 252.898 43.1983C251.093 41.8033 248.674 41.1063 245.638 41.1063Z" fill="#030712"/>
<path d="M324.224 24.7373C330.623 24.7373 336.118 25.9273 340.712 28.3063C345.388 30.6043 348.956 34.0503 351.417 38.6443C353.959 43.1573 355.231 48.7773 355.231 55.5053V60.1053C355.231 62.8663 352.992 65.1053 350.231 65.1053H312.536C312.7 69.5353 314.135 73.0633 316.842 75.6893C319.549 78.3143 323.404 79.6273 328.408 79.6273C332.755 79.6273 336.693 79.2173 340.22 78.3963C341.403 78.1213 342.599 77.7913 343.81 77.4053C347.315 76.2883 351.171 78.7143 351.171 82.3933V86.8203C351.171 88.6783 350.151 90.4093 348.441 91.1383C345.954 92.1983 343.337 92.9963 340.589 93.5343C336.816 94.3553 332.181 94.7653 326.685 94.7653C319.877 94.7653 313.807 93.5343 308.475 91.0733C303.225 88.6113 299.083 84.8373 296.048 79.7503C293.095 74.5813 291.618 68.0583 291.618 60.1823C291.618 52.1413 292.972 45.5363 295.679 40.3673C298.386 35.1163 302.2 31.2193 307.122 28.6753C312.043 26.0503 317.744 24.7373 324.224 24.7373ZM324.594 39.1373C321.395 39.1373 318.729 40.1623 316.596 42.2133C314.545 44.1823 313.315 47.3413 312.905 51.6903H336.16C336.16 49.3103 335.708 47.1773 334.806 45.2903C333.986 43.4033 332.714 41.9263 330.992 40.8603C329.269 39.7113 327.136 39.1373 324.594 39.1373Z" fill="#030712"/>
<path d="M410.051 10.8303C404.637 10.8303 399.756 11.7738 395.409 13.6609C391.143 15.466 387.534 18.0915 384.581 21.5373C381.628 24.9013 379.372 28.9633 377.814 33.7213C376.255 38.3983 375.476 43.6083 375.476 49.3513C375.476 57.2283 376.706 64.1203 379.167 70.0283C381.71 75.8533 385.442 80.3663 390.364 83.5653C395.286 86.7653 401.438 88.3653 408.82 88.3653C413.168 88.3653 417.105 88.0373 420.632 87.3813C422.74 86.9973 424.763 86.5443 426.703 86.0213C428.692 85.4853 430.722 86.9383 430.722 88.9983C430.722 90.2473 429.952 91.3733 428.766 91.7663C426.275 92.5913 423.605 93.2623 420.755 93.7803C417.146 94.4373 412.922 94.7653 408.082 94.7653C399.223 94.7653 391.8 92.8783 385.812 89.1043C379.906 85.3293 375.435 80.0373 372.4 73.2273C369.447 66.4173 367.971 58.4593 367.971 49.3513C367.971 42.7883 368.914 36.7983 370.8 31.3833C372.687 25.8863 375.435 21.1273 379.044 17.107C382.653 13.0866 387.042 9.9688 392.21 7.7535C397.459 5.5382 403.447 4.4306 410.174 4.4306C414.439 4.4306 418.5 4.8408 422.355 5.6613C425.101 6.2335 427.687 6.9852 430.114 7.9166C431.845 8.5812 432.572 10.5834 431.81 12.2743C431.015 14.0383 428.916 14.7724 427.119 14.0545C425.01 13.212 422.848 12.5475 420.632 12.061C417.269 11.2405 413.742 10.8303 410.051 10.8303Z" fill="#030712"/>
<path d="M454.844 90.0283C454.844 91.9643 453.274 93.5343 451.337 93.5343C449.4 93.5343 447.83 91.9643 447.83 90.0283V3.5066C447.83 1.57 449.4 0 451.337 0C453.274 0 454.844 1.57 454.844 3.5067V90.0283Z" fill="#030712"/>
<path d="M531.301 60.6743C531.301 65.8433 530.645 70.5203 529.333 74.7043C528.102 78.8073 526.216 82.3763 523.673 85.4123C521.212 88.3653 518.136 90.6633 514.445 92.3043C510.835 93.9443 506.652 94.7653 501.894 94.7653C497.383 94.7653 493.323 93.9863 489.713 92.4273C486.104 90.7863 483.028 88.4883 480.485 85.5353C478.024 82.4993 476.097 78.8893 474.702 74.7043C473.39 70.5203 472.734 65.8433 472.734 60.6743C472.734 53.6183 473.923 47.5873 476.302 42.5833C478.681 37.4963 482.085 33.5983 486.514 30.8913C490.944 28.1833 496.235 26.8293 502.387 26.8293C508.703 26.8293 513.994 28.2653 518.259 31.1373C522.524 33.9263 525.764 37.8653 527.979 42.9523C530.194 47.9573 531.301 53.8643 531.301 60.6743ZM479.993 60.6743C479.993 66.2533 480.772 71.1763 482.331 75.4433C483.971 79.6273 486.391 82.9093 489.59 85.2883C492.871 87.5863 497.014 88.7343 502.017 88.7343C507.103 88.7343 511.246 87.5863 514.445 85.2883C517.726 82.9093 520.146 79.6273 521.704 75.4433C523.263 71.1763 524.042 66.2533 524.042 60.6743C524.042 55.2593 523.304 50.4593 521.827 46.2753C520.351 42.0903 518.013 38.8083 514.814 36.4293C511.615 34.0503 507.431 32.8603 502.264 32.8603C494.881 32.8603 489.303 35.3213 485.53 40.2443C481.839 45.1673 479.993 51.9773 479.993 60.6743Z" fill="#030712"/>
<path d="M597.171 28.0603C599.108 28.0603 600.678 29.6303 600.678 31.5673V90.5653C600.678 92.2053 599.348 93.5343 597.708 93.5343C596.181 93.5343 594.903 92.3763 594.753 90.8573L593.91 82.3353H593.541C592.393 84.7143 590.752 86.8473 588.619 88.7343C586.569 90.6223 584.108 92.0983 581.237 93.1653C578.366 94.2323 575.044 94.7653 571.271 94.7653C566.267 94.7653 562.042 93.9033 558.597 92.1803C555.152 90.3753 552.568 87.7093 550.846 84.1813C549.123 80.6533 548.262 76.2223 548.262 70.8893V31.5673C548.262 29.6303 549.832 28.0603 551.769 28.0603C553.705 28.0603 555.275 29.6303 555.275 31.5673V70.2743C555.275 76.5093 556.67 81.1453 559.459 84.1813C562.33 87.2173 566.554 88.7343 572.132 88.7343C576.972 88.7343 580.95 87.7913 584.067 85.9043C587.266 84.0173 589.645 81.2273 591.203 77.5353C592.844 73.8433 593.664 69.2483 593.664 63.7513V31.5673C593.664 29.6303 595.234 28.0603 597.171 28.0603Z" fill="#030712"/>
<path d="M645.92 94.7653C637.143 94.7653 630.376 91.9343 625.618 86.2733C620.943 80.6123 618.605 72.3253 618.605 61.4133C618.605 50.1723 621.066 41.5983 625.987 35.6903C630.991 29.7833 637.841 26.8293 646.535 26.8293C650.227 26.8293 653.426 27.4043 656.133 28.5523C658.84 29.6193 661.136 31.0963 663.023 32.9833C664.992 34.8703 666.509 36.9623 667.576 39.2603H668.068C667.986 37.3723 667.863 35.2393 667.699 32.8603C667.617 30.4803 667.576 28.3473 667.576 26.4603V0H674.589V90.5833C674.589 92.2133 673.267 93.5343 671.637 93.5343C670.105 93.5343 668.828 92.3623 668.697 90.8363L667.945 82.0893H667.576C666.427 84.3863 664.91 86.5193 663.023 88.4883C661.136 90.3753 658.799 91.8933 656.01 93.0423C653.221 94.1913 649.858 94.7653 645.92 94.7653ZM646.782 88.7343C654.41 88.7343 659.783 86.4373 662.9 81.8423C666.099 77.2483 667.699 70.6023 667.699 61.9053V60.7973C667.699 51.7723 666.099 44.8803 662.9 40.1213C659.783 35.2803 654.574 32.8603 647.274 32.8603C640.301 32.8603 634.97 35.3623 631.278 40.3673C627.669 45.2903 625.864 52.3463 625.864 61.5363C625.864 70.3973 627.587 77.1663 631.032 81.8423C634.477 86.4373 639.727 88.7343 646.782 88.7343Z" fill="#030712"/>
</svg>
